<svg width="320" height="60" viewBox="0 0 320 60" fill="none" xmlns="http://www.w3.org/2000/svg">
<path d="M20 0C20 0 0 6.30777e-05 0 20L0 60H79.9999H160H240H320V20C320 20 320.295 40 300 40C300 40 279.625 40.6766 279.625 19.6251C279.625 19.6251 281.1 0 260 0C260 0 240 6.30777e-05 240 20C240 20 240.295 40 220 40C220 40 199.625 40.6766 199.625 19.6251C199.625 19.6251 201.1 0 180 0C180 0 160 6.30777e-05 160 20C160 20 160.295 40 140 40C140 40 139.92 40.0027 139.772 40.0026C137.538 39.9999 119.625 39.3638 119.625 19.6251C119.625 19.6251 121.1 0 100 0C100 0 80.0003 6.30777e-05 80.0003 20C80.0003 20 80.2959 40 60.0004 40C60.0004 40 39.6254 40.6766 39.6254 19.6251C39.6254 19.6251 41.0998 0 20 0Z" fill="#872341"/>
</svg>
